<svg width="14" height="20" viewBox="0 0 14 20" fill="none" xmlns="http://www.w3.org/2000/svg">
<path d="M6.99786 0.622559C3.20831 0.622559 0.123476 3.7074 0.123474 7.49694C0.123472 14.1649 6.61031 19.2341 6.61031 19.2341C6.72104 19.3225 6.8585 19.3706 7.00017 19.3706C7.14183 19.3706 7.27929 19.3225 7.39002 19.2341C7.39002 19.2341 13.8769 14.1649 13.8769 7.49694C13.8768 3.7074 10.7874 0.622559 6.99786 0.622559ZM6.99786 1.87287C10.1119 1.87287 12.6265 4.38294 12.6265 7.49694C12.6266 12.9519 7.68703 17.2617 7.00247 17.8454C6.32118 17.2646 1.37378 12.954 1.37378 7.49694C1.37378 4.38294 3.88386 1.87287 6.99786 1.87287Z" fill="#B0B0D1"/>
<path d="M6.99785 4.37354C5.27937 4.37354 3.8744 5.77852 3.87439 7.497C3.87438 9.2155 5.27936 10.6251 6.99785 10.6251C8.71635 10.6251 10.1259 9.2155 10.1259 7.497C10.1259 5.77852 8.71633 4.37354 6.99785 4.37354ZM6.99785 5.62384C8.04079 5.62384 8.87562 6.45406 8.87562 7.497C8.87563 8.53993 8.04079 9.37476 6.99785 9.37476C5.95491 9.37476 5.12469 8.53993 5.1247 7.497C5.1247 6.45406 5.95492 5.62384 6.99785 5.62384Z" fill="#B0B0D1"/>
</svg>
