<svg width="502" height="64" viewBox="0 0 502 64" fill="none" xmlns="http://www.w3.org/2000/svg">
<path d="M0.38 46.13C1.26667 45.9433 1.99 45.71 2.55 45.43C3.15667 45.1033 3.76333 44.6367 4.37 44.03V7.28C3.48333 6.44 2.06 5.69333 0.1 5.04L0.38 2.31H20.12C32.3 2.31 38.39 6.65 38.39 15.33C38.39 19.8567 36.7333 23.3333 33.42 25.76C30.1067 28.1867 25.3467 29.4 19.14 29.4C18.1133 29.4 16.62 29.33 14.66 29.19V44.03C15.64 45.01 17.39 45.7567 19.91 46.27L19.42 49H0.1L0.38 46.13ZM19.21 24.99C21.9633 24.99 24.04 24.1967 25.44 22.61C26.84 20.9767 27.54 18.5967 27.54 15.47C27.54 12.6233 26.7933 10.43 25.3 8.89C23.8533 7.35 21.8233 6.58 19.21 6.58C17.3433 6.58 15.8267 6.67333 14.66 6.86V24.99H19.21ZM55.7668 49.49C50.2135 49.49 46.0135 48.02 43.1668 45.08C40.3668 42.14 38.9668 37.8233 38.9668 32.13C38.9668 26.39 40.3668 22.0267 43.1668 19.04C46.0135 16.0533 50.2135 14.56 55.7668 14.56C61.3201 14.56 65.4968 16.0533 68.2968 19.04C71.1435 22.0267 72.5668 26.3667 72.5668 32.06C72.5668 37.7533 71.1435 42.0933 68.2968 45.08C65.4968 48.02 61.3201 49.49 55.7668 49.49ZM55.7668 45.57C58.0535 45.57 59.7101 44.52 60.7368 42.42C61.7635 40.2733 62.2768 36.82 62.2768 32.06C62.2768 27.3 61.7635 23.8467 60.7368 21.7C59.7101 19.5533 58.0535 18.48 55.7668 18.48C53.4801 18.48 51.8235 19.5533 50.7968 21.7C49.7701 23.8467 49.2568 27.3 49.2568 32.06C49.2568 36.82 49.7701 40.2733 50.7968 42.42C51.8235 44.52 53.4801 45.57 55.7668 45.57ZM76.2159 60.9C77.1026 60.7133 77.7793 60.5033 78.2459 60.27C78.7593 60.0367 79.2959 59.6633 79.8559 59.15V24.22C79.8559 22.54 79.5293 21.3967 78.8759 20.79C78.2693 20.1367 77.1493 19.7633 75.5159 19.67L75.7259 16.94C76.0526 16.8467 76.3793 16.7767 76.7059 16.73C77.0793 16.6833 77.4059 16.6367 77.6859 16.59C78.4793 16.45 80.0193 16.17 82.3059 15.75C84.5926 15.2833 86.2726 14.8867 87.3459 14.56L88.6059 15.19L89.3059 19.88C91.3126 16.3333 94.6259 14.56 99.2459 14.56C103.399 14.56 106.596 15.96 108.836 18.76C111.076 21.56 112.196 25.6667 112.196 31.08C112.196 37.1 110.843 41.6733 108.136 44.8C105.476 47.9267 101.673 49.49 96.7259 49.49C95.2793 49.49 94.0193 49.35 92.9459 49.07C91.9193 48.79 90.8459 48.37 89.7259 47.81V59.15C91.1259 60.0367 92.8526 60.6667 94.9059 61.04L94.6259 63.77H75.9359L76.2159 60.9ZM94.3459 45.78C99.3859 45.78 101.906 40.88 101.906 31.08C101.906 26.88 101.439 23.7767 100.506 21.77C99.5726 19.7633 98.1259 18.76 96.1659 18.76C94.1593 18.76 92.5726 19.74 91.4059 21.7C90.2859 23.66 89.7259 26.5067 89.7259 30.24V44.38C90.2393 44.7533 90.9159 45.08 91.7559 45.36C92.5959 45.64 93.4593 45.78 94.3459 45.78ZM129.493 49.49C126.32 49.49 123.776 48.5333 121.863 46.62C119.95 44.7067 118.993 42.07 118.993 38.71V24.22C118.993 22.54 118.666 21.3967 118.013 20.79C117.406 20.1367 116.286 19.7633 114.653 19.67L114.863 16.94C115.563 16.8 116.823 16.59 118.643 16.31C123.636 15.47 126.646 14.8867 127.673 14.56L128.863 15.19V38.08C128.863 42.56 130.31 44.8 133.203 44.8C134.416 44.8 135.583 44.45 136.703 43.75C137.87 43.05 138.803 42.1167 139.503 40.95V24.22C139.503 22.54 139.176 21.3967 138.523 20.79C137.87 20.1367 136.726 19.7633 135.093 19.67L135.303 16.94C136.003 16.8 137.263 16.59 139.083 16.31C144.076 15.47 147.086 14.8867 148.113 14.56L149.373 15.19V44.66C149.793 45.0333 150.47 45.4067 151.403 45.78C152.336 46.1067 153.27 46.3633 154.203 46.55L153.993 49H140.623L139.923 44.52C138.663 46.06 137.123 47.2733 135.303 48.16C133.53 49.0467 131.593 49.49 129.493 49.49ZM157.999 46.13C158.886 45.9433 159.562 45.7333 160.029 45.5C160.542 45.2667 161.079 44.8933 161.639 44.38V9.94C161.639 8.21333 161.312 7.04666 160.659 6.44C160.052 5.78666 158.932 5.41333 157.299 5.32L157.509 2.59C158.209 2.45 159.469 2.24 161.289 1.96C166.282 1.12 169.292 0.536663 170.319 0.209998L171.579 0.909997V44.38C171.999 44.7533 172.606 45.1267 173.399 45.5C174.192 45.8267 175.056 46.0833 175.989 46.27L175.779 49H157.719L157.999 46.13ZM188.407 49.49C185.187 49.49 182.714 48.7433 180.987 47.25C179.261 45.7567 178.397 43.5867 178.397 40.74C178.397 37.7067 179.564 35.3267 181.897 33.6C184.231 31.8267 187.661 30.7767 192.187 30.45L198.347 30.03V25.97C198.347 22.7033 197.951 20.44 197.157 19.18C196.411 17.92 195.081 17.29 193.167 17.29C191.861 17.29 190.764 17.64 189.877 18.34C189.037 18.9933 188.617 19.8333 188.617 20.86C188.617 22.0267 189.131 23.0067 190.157 23.8C189.924 24.9667 189.364 25.9 188.477 26.6C187.591 27.3 186.517 27.65 185.257 27.65C183.717 27.65 182.434 27.16 181.407 26.18C180.381 25.2 179.867 23.9867 179.867 22.54C179.867 20.0667 181.034 18.13 183.367 16.73C185.747 15.2833 189.014 14.56 193.167 14.56C198.114 14.56 201.847 15.4933 204.367 17.36C206.934 19.2267 208.217 21.98 208.217 25.62V44.66C208.544 45.0333 209.104 45.4067 209.897 45.78C210.691 46.1067 211.531 46.3633 212.417 46.55L212.137 49H199.537L198.837 45.01C197.297 46.55 195.687 47.6933 194.007 48.44C192.327 49.14 190.461 49.49 188.407 49.49ZM191.837 44.94C193.984 44.94 196.154 43.6567 198.347 41.09V33.46L194.847 33.74C192.281 33.9267 190.437 34.51 189.317 35.49C188.197 36.47 187.637 37.9633 187.637 39.97C187.637 41.5567 187.987 42.7933 188.687 43.68C189.434 44.52 190.484 44.94 191.837 44.94ZM215.725 46.13C216.611 45.9433 217.288 45.7333 217.755 45.5C218.268 45.2667 218.828 44.8933 219.435 44.38V24.22C219.435 22.54 219.108 21.3967 218.455 20.79C217.801 20.1367 216.658 19.7633 215.025 19.67L215.235 16.94L217.545 16.52C222.491 15.68 225.711 15.0267 227.205 14.56L228.465 15.19L229.025 19.81C230.098 18.2233 231.405 16.9633 232.945 16.03C234.485 15.0967 236.188 14.63 238.055 14.63C239.875 14.63 241.438 15.26 242.745 16.52C244.098 17.7333 244.775 19.25 244.775 21.07C244.775 22.75 244.285 24.08 243.305 25.06C242.371 25.9933 241.275 26.46 240.015 26.46C238.568 26.46 237.425 25.8767 236.585 24.71C237.238 23.9167 237.565 23.1467 237.565 22.4C237.565 21.6533 237.238 21.0467 236.585 20.58C235.978 20.1133 235.278 19.88 234.485 19.88C233.505 19.88 232.525 20.3 231.545 21.14C230.611 21.9333 229.865 22.9833 229.305 24.29V44.38C230.378 45.22 231.778 45.85 233.505 46.27L233.225 49H215.515L215.725 46.13Z" fill="white"/>
<path d="M281.213 49.7C274.633 49.7 269.616 47.7167 266.163 43.75C262.756 39.7833 261.053 33.95 261.053 26.25C261.053 18.1767 262.733 12.0867 266.093 7.98C269.499 3.87333 274.516 1.82 281.143 1.82C283.943 1.82 286.416 2.21667 288.563 3.01C290.756 3.75667 292.459 4.83 293.673 6.23C294.886 7.63 295.493 9.24 295.493 11.06C295.493 12.74 294.956 14.1633 293.883 15.33C292.809 16.4967 291.479 17.08 289.893 17.08C288.773 17.08 287.699 16.7767 286.673 16.17C285.693 15.5633 284.969 14.7933 284.503 13.86C285.249 12.6 285.623 11.3633 285.623 10.15C285.623 8.75 285.179 7.63 284.293 6.79C283.453 5.95 282.309 5.53 280.863 5.53C275.356 5.53 272.603 12.04 272.603 25.06C272.603 31.64 273.466 36.61 275.193 39.97C276.919 43.2833 279.696 44.94 283.523 44.94C285.389 44.94 287.233 44.4967 289.053 43.61C290.873 42.7233 292.576 41.4167 294.163 39.69L296.473 41.93C294.279 44.4033 291.829 46.3167 289.123 47.67C286.463 49.0233 283.826 49.7 281.213 49.7ZM315.429 49.49C309.876 49.49 305.676 48.02 302.829 45.08C300.029 42.14 298.629 37.8233 298.629 32.13C298.629 26.39 300.029 22.0267 302.829 19.04C305.676 16.0533 309.876 14.56 315.429 14.56C320.982 14.56 325.159 16.0533 327.959 19.04C330.806 22.0267 332.229 26.3667 332.229 32.06C332.229 37.7533 330.806 42.0933 327.959 45.08C325.159 48.02 320.982 49.49 315.429 49.49ZM315.429 45.57C317.716 45.57 319.372 44.52 320.399 42.42C321.426 40.2733 321.939 36.82 321.939 32.06C321.939 27.3 321.426 23.8467 320.399 21.7C319.372 19.5533 317.716 18.48 315.429 18.48C313.142 18.48 311.486 19.5533 310.459 21.7C309.432 23.8467 308.919 27.3 308.919 32.06C308.919 36.82 309.432 40.2733 310.459 42.42C311.486 44.52 313.142 45.57 315.429 45.57ZM349.528 49.49C346.355 49.49 343.811 48.5333 341.898 46.62C339.985 44.7067 339.028 42.07 339.028 38.71V24.22C339.028 22.54 338.701 21.3967 338.048 20.79C337.441 20.1367 336.321 19.7633 334.688 19.67L334.898 16.94C335.598 16.8 336.858 16.59 338.678 16.31C343.671 15.47 346.681 14.8867 347.708 14.56L348.898 15.19V38.08C348.898 42.56 350.345 44.8 353.238 44.8C354.451 44.8 355.618 44.45 356.738 43.75C357.905 43.05 358.838 42.1167 359.538 40.95V24.22C359.538 22.54 359.211 21.3967 358.558 20.79C357.905 20.1367 356.761 19.7633 355.128 19.67L355.338 16.94C356.038 16.8 357.298 16.59 359.118 16.31C364.111 15.47 367.121 14.8867 368.148 14.56L369.408 15.19V44.66C369.828 45.0333 370.505 45.4067 371.438 45.78C372.371 46.1067 373.305 46.3633 374.238 46.55L374.028 49H360.658L359.958 44.52C358.698 46.06 357.158 47.2733 355.338 48.16C353.565 49.0467 351.628 49.49 349.528 49.49ZM378.244 46.13C379.131 45.9433 379.808 45.7333 380.274 45.5C380.788 45.2667 381.348 44.8933 381.954 44.38V24.22C381.954 22.54 381.628 21.3967 380.974 20.79C380.321 20.1367 379.178 19.7633 377.544 19.67L377.754 16.94L380.064 16.52C385.011 15.68 388.231 15.0267 389.724 14.56L390.984 15.19L391.544 19.81C392.618 18.2233 393.924 16.9633 395.464 16.03C397.004 15.0967 398.708 14.63 400.574 14.63C402.394 14.63 403.958 15.26 405.264 16.52C406.618 17.7333 407.294 19.25 407.294 21.07C407.294 22.75 406.804 24.08 405.824 25.06C404.891 25.9933 403.794 26.46 402.534 26.46C401.088 26.46 399.944 25.8767 399.104 24.71C399.758 23.9167 400.084 23.1467 400.084 22.4C400.084 21.6533 399.758 21.0467 399.104 20.58C398.498 20.1133 397.798 19.88 397.004 19.88C396.024 19.88 395.044 20.3 394.064 21.14C393.131 21.9333 392.384 22.9833 391.824 24.29V44.38C392.898 45.22 394.298 45.85 396.024 46.27L395.744 49H378.034L378.244 46.13ZM421.431 49.56C419.611 49.56 417.418 49.1867 414.851 48.44C412.331 47.6467 410.395 46.7833 409.041 45.85V38.15L416.251 37.1C416.298 38.64 416.461 40.2733 416.741 42C417.068 43.68 417.395 44.8233 417.721 45.43C419.028 45.85 420.311 46.06 421.571 46.06C422.971 46.06 424.138 45.6167 425.071 44.73C426.005 43.8433 426.471 42.7233 426.471 41.37C426.471 39.97 425.911 38.7567 424.791 37.73C423.671 36.7033 421.805 35.7467 419.191 34.86C415.738 33.6933 413.195 32.2467 411.561 30.52C409.928 28.7467 409.111 26.53 409.111 23.87C409.111 20.93 410.301 18.6433 412.681 17.01C415.108 15.33 418.468 14.49 422.761 14.49C425.048 14.49 427.171 14.7933 429.131 15.4C431.091 15.96 432.631 16.7533 433.751 17.78C434.918 18.76 435.501 19.8567 435.501 21.07C435.501 22.7033 435.035 24.01 434.101 24.99C433.215 25.97 432.025 26.46 430.531 26.46C429.551 26.46 428.641 26.2733 427.801 25.9C426.961 25.48 426.285 24.8967 425.771 24.15C426.705 23.1233 427.171 22.0733 427.171 21C427.171 19.9733 426.775 19.1567 425.981 18.55C425.188 17.9433 424.115 17.64 422.761 17.64C421.408 17.64 420.311 18.0833 419.471 18.97C418.631 19.8567 418.211 21.0233 418.211 22.47C418.211 23.6833 418.771 24.7333 419.891 25.62C421.011 26.46 423.041 27.3933 425.981 28.42C429.388 29.6333 431.861 31.1033 433.401 32.83C434.988 34.51 435.781 36.5867 435.781 39.06C435.781 42.3733 434.521 44.9633 432.001 46.83C429.481 48.65 425.958 49.56 421.431 49.56ZM455.605 49.49C450.192 49.49 446.108 47.9733 443.355 44.94C440.648 41.86 439.295 37.66 439.295 32.34C439.295 26.7867 440.742 22.4467 443.635 19.32C446.528 16.1467 450.705 14.56 456.165 14.56C461.392 14.56 465.102 15.7733 467.295 18.2C469.488 20.6267 470.725 24.2433 471.005 29.05L469.045 31.99H449.305V33.11C449.305 37.03 449.865 39.9467 450.985 41.86C452.105 43.7267 454.205 44.66 457.285 44.66C459.058 44.66 460.785 44.3567 462.465 43.75C464.192 43.0967 465.685 42.1167 466.945 40.81L469.745 43.54C467.832 45.4533 465.825 46.9233 463.725 47.95C461.672 48.9767 458.965 49.49 455.605 49.49ZM461.065 28.63C461.065 24.8967 460.692 22.19 459.945 20.51C459.198 18.83 457.845 17.99 455.885 17.99C451.638 17.99 449.445 21.7233 449.305 29.19L461.065 28.63ZM487.424 49.56C485.604 49.56 483.41 49.1867 480.844 48.44C478.324 47.6467 476.387 46.7833 475.034 45.85V38.15L482.244 37.1C482.29 38.64 482.454 40.2733 482.734 42C483.06 43.68 483.387 44.8233 483.714 45.43C485.02 45.85 486.304 46.06 487.564 46.06C488.964 46.06 490.13 45.6167 491.064 44.73C491.997 43.8433 492.464 42.7233 492.464 41.37C492.464 39.97 491.904 38.7567 490.784 37.73C489.664 36.7033 487.797 35.7467 485.184 34.86C481.73 33.6933 479.187 32.2467 477.554 30.52C475.92 28.7467 475.104 26.53 475.104 23.87C475.104 20.93 476.294 18.6433 478.674 17.01C481.1 15.33 484.46 14.49 488.754 14.49C491.04 14.49 493.164 14.7933 495.124 15.4C497.084 15.96 498.624 16.7533 499.744 17.78C500.91 18.76 501.494 19.8567 501.494 21.07C501.494 22.7033 501.027 24.01 500.094 24.99C499.207 25.97 498.017 26.46 496.524 26.46C495.544 26.46 494.634 26.2733 493.794 25.9C492.954 25.48 492.277 24.8967 491.764 24.15C492.697 23.1233 493.164 22.0733 493.164 21C493.164 19.9733 492.767 19.1567 491.974 18.55C491.18 17.9433 490.107 17.64 488.754 17.64C487.4 17.64 486.304 18.0833 485.464 18.97C484.624 19.8567 484.204 21.0233 484.204 22.47C484.204 23.6833 484.764 24.7333 485.884 25.62C487.004 26.46 489.034 27.3933 491.974 28.42C495.38 29.6333 497.854 31.1033 499.394 32.83C500.98 34.51 501.774 36.5867 501.774 39.06C501.774 42.3733 500.514 44.9633 497.994 46.83C495.474 48.65 491.95 49.56 487.424 49.56Z" fill="#BEA0FF"/>
</svg>
